<?xml version="1.0" encoding="utf-8"?>
<!-- Generator: Adobe Illustrator 28.0.0, SVG Export Plug-In . SVG Version: 6.00 Build 0)  -->
<svg version="1.1" id="Layer_1" xmlns="http://www.w3.org/2000/svg" xmlns:xlink="http://www.w3.org/1999/xlink" x="0px" y="0px"
	 viewBox="0 0 141.8 56.5" style="enable-background:new 0 0 141.8 56.5;" xml:space="preserve">
<style type="text/css">
	.st0{fill:#92C83E;}
	.st1{fill:#00AEEF;}
	.st2{fill-rule:evenodd;clip-rule:evenodd;}
</style>
<g>
	<g>
		<path class="st0" d="M115,22.7c0.5,1.5,1.5,2.4,2.9,2.7l9.3,0c1.6-0.2,2.7-0.9,3.3-2.2c0.8-0.9,1.3-3.1,1.6-6.5
			c0.3-3.5,0.1-5.7-0.7-6.6c-0.7-1-1.9-1.6-3.5-1.7h-7.2c-2.1,0.2-3.6,1.2-4.4,3c-0.6,0.9-1,2.8-1.4,5.8
			C114.7,20.3,114.7,22.1,115,22.7 M130.5,34.3h-15.8c-7,0-10-5.6-8.8-17C107,5.8,111.3,0.1,118.7,0l13,0c7.8-0.1,11.1,5.4,9.8,16.6
			C141,28.3,137.3,34.2,130.5,34.3z M9.4,25.4l13,0c1.4-0.2,2.4-0.9,3-2.3c0.8-1.2,1.3-3.2,1.6-5.9c0.3-2.7,0.1-4.9-0.7-6.7
			c-0.5-1.1-1.5-1.7-3-1.8H11.1L9.4,25.4z M3.3,0.6l22.7,0c7.2,0.4,10.3,6,9.2,16.6c-1.1,10.7-5,16.2-11.8,16.6L0,33.9L3.3,0.6z"/>
		<path class="st1" d="M103.2,33.8H79.6c-6.8-0.4-9.6-6-8.6-16.7c1-10.7,5.2-16.3,12.5-16.6l22.9,0l-0.9,8.1H85.4
			c-1.5,0-2.6,0.6-3.3,1.6c-1.6,4.1-2.3,8.3-1.9,12.4c0.2,1.3,1,2.2,2.4,2.5l12.7,0l1-9.7l8.7,0L103.2,33.8z M68.1,33.8H44.6
			c-6.7-0.4-9.6-6-8.5-16.7c1-10.7,5.2-16.3,12.5-16.6h22.8l-0.8,8.1l-20.2,0C48.7,8.6,47.6,9,47.3,10l-0.8,2.9l23.7,0l-0.9,8
			l-23.6-0.1l0,1.9c0.1,1.6,0.6,2.4,1.7,2.6l21.4,0L68.1,33.8z"/>
		<polygon class="st2" points="0.2,36.8 140,36.8 139.7,39 0,39 		"/>
		<path class="st1" d="M137.7,56.3h-9.4c-2.7-0.2-3.9-2.4-3.4-6.7c0.4-4.3,2.1-6.5,5-6.7l9.2,0l-0.3,3.3h-8.1
			c-0.6,0-1.1,0.2-1.3,0.6c-0.6,1.7-0.9,3.3-0.8,5c0.1,0.5,0.4,0.9,1,1l5.1,0l0.4-3.9l3.5,0L137.7,56.3z M107.9,56.4l1.3-13.5h9.1
			c2.6-0.1,3.9,1.4,3.7,4.3l-0.9,9.2h-3.6l0.9-8.4c0.2-0.9-0.2-1.3-1-1.2h-5l-1,9.6H107.9z M102,42.9h3.9l-1.3,13.4h-4L102,42.9z
			 M87.8,52.9l5.2,0c0.6-0.1,1-0.4,1.2-0.9c0.3-0.5,0.5-1.3,0.6-2.3c0.1-1.1,0-2-0.3-2.7c-0.2-0.5-0.6-0.7-1.2-0.7h-4.9L87.8,52.9z
			 M85.3,43l9.1,0c2.9,0.2,4.1,2.4,3.7,6.7c-0.4,4.3-2,6.5-4.8,6.7l-9.4,0L85.3,43z M72.9,42.9L72,51.2c0,0.8,0.4,1.2,1.2,1.3l8.1,0
			L81,56.3h-9.2c-2.9-0.1-4.2-1.8-3.8-5l0.9-8.4H72.9z M54.5,51.8c0.2,0.6,0.6,1,1.2,1.1l3.7,0c0.6-0.1,1.1-0.3,1.3-0.9
			c0.3-0.4,0.5-1.2,0.6-2.6c0.1-1.4,0-2.2-0.3-2.6c-0.3-0.4-0.8-0.6-1.4-0.7h-2.8c-0.8,0.1-1.4,0.5-1.7,1.2
			c-0.2,0.3-0.4,1.1-0.5,2.3C54.4,50.9,54.4,51.6,54.5,51.8z M60.7,56.5h-6.3c-2.8,0-4-2.3-3.5-6.8c0.4-4.6,2.2-6.9,5.1-6.9l5.2,0
			c3.1-0.1,4.4,2.2,3.9,6.7C64.9,54.1,63.4,56.4,60.7,56.5z M35.4,42.9h4l-0.5,5l5,0l0.5-5l4,0L47,56.3l-4,0l0.5-5.2h-5L38,56.3h-4
			L35.4,42.9z"/>
	</g>
</g>
</svg>
